# Blender v2.90.0 OBJ File: 'tracklol.blend'
# www.blender.org
mtllib racetrack.mtl
o Cylinder.001
v 5.299999 10.000000 -50.000000
v 5.299998 -0.000000 -50.000000
v 5.294234 10.000000 -50.058529
v 5.294233 -0.000000 -50.058529
v 5.277163 10.000000 -50.114807
v 5.277162 -0.000000 -50.114807
v 5.249440 10.000000 -50.166672
v 5.249439 -0.000000 -50.166672
v 5.212131 10.000000 -50.212132
v 5.212130 -0.000000 -50.212132
v 5.166670 10.000000 -50.249443
v 5.166669 -0.000000 -50.249443
v 5.114803 10.000000 -50.277164
v 5.114802 -0.000000 -50.277164
v 5.058526 10.000000 -50.294235
v 5.058525 -0.000000 -50.294235
v 4.999999 10.000000 -50.299999
v 4.999998 -0.000000 -50.299999
v 4.941472 10.000000 -50.294235
v 4.941471 -0.000000 -50.294235
v 4.885194 10.000000 -50.277164
v 4.885193 -0.000000 -50.277164
v 4.833327 10.000000 -50.249443
v 4.833326 -0.000000 -50.249443
v 4.787867 10.000000 -50.212132
v 4.787866 -0.000000 -50.212132
v 4.750558 10.000000 -50.166672
v 4.750557 -0.000000 -50.166672
v 4.722835 10.000000 -50.114807
v 4.722834 -0.000000 -50.114807
v 4.705763 10.000000 -50.058529
v 4.705762 -0.000000 -50.058529
v 4.699998 10.000000 -50.000000
v 4.699997 -0.000000 -50.000000
v 4.705763 10.000000 -49.941475
v 4.705762 -0.000000 -49.941475
v 4.722835 10.000000 -49.885197
v 4.722834 -0.000000 -49.885197
v 4.750558 10.000000 -49.833328
v 4.750557 -0.000000 -49.833328
v 4.787867 10.000000 -49.787868
v 4.787866 -0.000000 -49.787868
v 4.833327 10.000000 -49.750561
v 4.833326 -0.000000 -49.750561
v 4.885194 10.000000 -49.722836
v 4.885193 -0.000000 -49.722836
v 4.941472 10.000000 -49.705769
v 4.941471 -0.000000 -49.705769
v 4.999999 10.000000 -49.700001
v 4.999998 -0.000000 -49.700001
v 5.058526 10.000000 -49.705769
v 5.058525 -0.000000 -49.705769
v 5.114804 10.000000 -49.722836
v 5.114803 -0.000000 -49.722836
v 5.166670 10.000000 -49.750561
v 5.166669 -0.000000 -49.750561
v 5.212131 10.000000 -49.787868
v 5.212130 -0.000000 -49.787868
v 5.249440 10.000000 -49.833332
v 5.249439 -0.000000 -49.833332
v 5.277163 10.000000 -49.885197
v 5.277162 -0.000000 -49.885197
v 5.294234 10.000000 -49.941475
v 5.294233 -0.000000 -49.941475
v -3.999998 0.000000 50.000000
v -4.000002 0.000000 -53.999996
v 4.000002 -0.000000 50.000000
v 3.999997 -0.000000 -53.999996
v -4.700000 10.000000 -50.000000
v -4.700001 0.000000 -50.000000
v -4.705765 10.000000 -50.058529
v -4.705766 0.000000 -50.058529
v -4.722837 10.000000 -50.114807
v -4.722838 0.000000 -50.114807
v -4.750559 10.000000 -50.166672
v -4.750560 0.000000 -50.166672
v -4.787868 10.000000 -50.212132
v -4.787869 0.000000 -50.212132
v -4.833330 10.000000 -50.249443
v -4.833331 0.000000 -50.249443
v -4.885195 10.000000 -50.277164
v -4.885196 0.000000 -50.277164
v -4.941473 10.000000 -50.294235
v -4.941474 0.000000 -50.294235
v -5.000000 10.000000 -50.299999
v -5.000001 0.000000 -50.299999
v -5.058527 10.000000 -50.294235
v -5.058528 0.000000 -50.294235
v -5.114805 10.000000 -50.277164
v -5.114806 0.000000 -50.277164
v -5.166671 10.000000 -50.249443
v -5.166672 0.000000 -50.249443
v -5.212132 10.000000 -50.212132
v -5.212133 0.000000 -50.212132
v -5.249442 10.000000 -50.166672
v -5.249443 0.000000 -50.166672
v -5.277164 10.000000 -50.114807
v -5.277164 0.000000 -50.114807
v -5.294236 10.000000 -50.058529
v -5.294237 0.000000 -50.058529
v -5.300000 10.000000 -50.000000
v -5.300001 0.000000 -50.000000
v -5.294236 10.000000 -49.941475
v -5.294237 0.000000 -49.941475
v -5.277164 10.000000 -49.885197
v -5.277164 0.000000 -49.885197
v -5.249442 10.000000 -49.833328
v -5.249443 0.000000 -49.833328
v -5.212132 10.000000 -49.787868
v -5.212133 0.000000 -49.787868
v -5.166671 10.000000 -49.750561
v -5.166672 0.000000 -49.750561
v -5.114805 10.000000 -49.722836
v -5.114806 0.000000 -49.722836
v -5.058527 10.000000 -49.705769
v -5.058528 0.000000 -49.705769
v -5.000000 10.000000 -49.700001
v -5.000001 0.000000 -49.700001
v -4.941473 10.000000 -49.705769
v -4.941474 0.000000 -49.705769
v -4.885195 10.000000 -49.722836
v -4.885196 0.000000 -49.722836
v -4.833329 10.000000 -49.750561
v -4.833330 0.000000 -49.750561
v -4.787868 10.000000 -49.787868
v -4.787869 0.000000 -49.787868
v -4.750559 10.000000 -49.833332
v -4.750560 0.000000 -49.833332
v -4.722836 10.000000 -49.885197
v -4.722837 0.000000 -49.885197
v -4.705765 10.000000 -49.941475
v -4.705766 0.000000 -49.941475
vt 1.000000 0.500000
vt 0.968750 0.500000
vt 0.968750 1.000000
vt 1.000000 1.000000
vt 0.937500 0.500000
vt 0.937500 1.000000
vt 0.906250 0.500000
vt 0.906250 1.000000
vt 0.875000 0.500000
vt 0.875000 1.000000
vt 0.843750 0.500000
vt 0.843750 1.000000
vt 0.812500 0.500000
vt 0.812500 1.000000
vt 0.781250 0.500000
vt 0.781250 1.000000
vt 0.750000 0.500000
vt 0.750000 1.000000
vt 0.718750 0.500000
vt 0.718750 1.000000
vt 0.687500 0.500000
vt 0.687500 1.000000
vt 0.656250 0.500000
vt 0.656250 1.000000
vt 0.625000 0.500000
vt 0.625000 1.000000
vt 0.593750 0.500000
vt 0.593750 1.000000
vt 0.562500 0.500000
vt 0.562500 1.000000
vt 0.531250 0.500000
vt 0.531250 1.000000
vt 0.500000 0.500000
vt 0.500000 1.000000
vt 0.468750 0.500000
vt 0.468750 1.000000
vt 0.437500 0.500000
vt 0.437500 1.000000
vt 0.406250 0.500000
vt 0.406250 1.000000
vt 0.375000 0.500000
vt 0.375000 1.000000
vt 0.343750 0.500000
vt 0.343750 1.000000
vt 0.312500 0.500000
vt 0.312500 1.000000
vt 0.281250 0.500000
vt 0.281250 1.000000
vt 0.250000 0.500000
vt 0.250000 1.000000
vt 0.218750 0.500000
vt 0.218750 1.000000
vt 0.187500 0.500000
vt 0.187500 1.000000
vt 0.156250 0.500000
vt 0.156250 1.000000
vt 0.125000 0.500000
vt 0.125000 1.000000
vt 0.093750 0.500000
vt 0.093750 1.000000
vt 0.062500 0.500000
vt 0.062500 1.000000
vt 0.296822 0.485388
vt 0.341844 0.471731
vt 0.383337 0.449553
vt 0.419706 0.419706
vt 0.449553 0.383337
vt 0.471731 0.341844
vt 0.485388 0.296822
vt 0.490000 0.250000
vt 0.485388 0.203178
vt 0.471731 0.158156
vt 0.449553 0.116663
vt 0.419706 0.080294
vt 0.383337 0.050447
vt 0.341844 0.028269
vt 0.296822 0.014612
vt 0.250000 0.010000
vt 0.203178 0.014612
vt 0.158156 0.028269
vt 0.116663 0.050447
vt 0.080294 0.080294
vt 0.050447 0.116663
vt 0.028269 0.158156
vt 0.014611 0.203179
vt 0.010000 0.250000
vt 0.014612 0.296822
vt 0.028269 0.341844
vt 0.050447 0.383337
vt 0.080295 0.419706
vt 0.116663 0.449553
vt 0.158156 0.471731
vt 0.203179 0.485389
vt 0.250000 0.490000
vt 0.031250 0.500000
vt 0.031250 1.000000
vt 0.000000 0.500000
vt 0.000000 1.000000
vt 0.750000 0.490000
vt 0.703179 0.485389
vt 0.658156 0.471731
vt 0.616663 0.449553
vt 0.580295 0.419706
vt 0.550447 0.383337
vt 0.528269 0.341844
vt 0.514612 0.296822
vt 0.510000 0.250000
vt 0.514611 0.203179
vt 0.528269 0.158156
vt 0.550447 0.116663
vt 0.580294 0.080294
vt 0.616663 0.050447
vt 0.658156 0.028269
vt 0.703178 0.014612
vt 0.750000 0.010000
vt 0.796822 0.014612
vt 0.841844 0.028269
vt 0.883337 0.050447
vt 0.919706 0.080294
vt 0.949553 0.116663
vt 0.971731 0.158156
vt 0.985388 0.203178
vt 0.990000 0.250000
vt 0.985388 0.296822
vt 0.971731 0.341844
vt 0.949553 0.383337
vt 0.919706 0.419706
vt 0.883337 0.449553
vt 0.841844 0.471731
vt 0.796822 0.485388
vt 0.000000 0.000000
vt 0.000000 1.000000
vt 1.000000 1.000000
vt 1.000000 0.000000
vt 1.000000 0.500000
vt 0.968750 0.500000
vt 0.968750 1.000000
vt 1.000000 1.000000
vt 0.937500 0.500000
vt 0.937500 1.000000
vt 0.906250 0.500000
vt 0.906250 1.000000
vt 0.875000 0.500000
vt 0.875000 1.000000
vt 0.843750 0.500000
vt 0.843750 1.000000
vt 0.812500 0.500000
vt 0.812500 1.000000
vt 0.781250 0.500000
vt 0.781250 1.000000
vt 0.750000 0.500000
vt 0.750000 1.000000
vt 0.718750 0.500000
vt 0.718750 1.000000
vt 0.687500 0.500000
vt 0.687500 1.000000
vt 0.656250 0.500000
vt 0.656250 1.000000
vt 0.625000 0.500000
vt 0.625000 1.000000
vt 0.593750 0.500000
vt 0.593750 1.000000
vt 0.562500 0.500000
vt 0.562500 1.000000
vt 0.531250 0.500000
vt 0.531250 1.000000
vt 0.500000 0.500000
vt 0.500000 1.000000
vt 0.468750 0.500000
vt 0.468750 1.000000
vt 0.437500 0.500000
vt 0.437500 1.000000
vt 0.406250 0.500000
vt 0.406250 1.000000
vt 0.375000 0.500000
vt 0.375000 1.000000
vt 0.343750 0.500000
vt 0.343750 1.000000
vt 0.312500 0.500000
vt 0.312500 1.000000
vt 0.281250 0.500000
vt 0.281250 1.000000
vt 0.250000 0.500000
vt 0.250000 1.000000
vt 0.218750 0.500000
vt 0.218750 1.000000
vt 0.187500 0.500000
vt 0.187500 1.000000
vt 0.156250 0.500000
vt 0.156250 1.000000
vt 0.125000 0.500000
vt 0.125000 1.000000
vt 0.093750 0.500000
vt 0.093750 1.000000
vt 0.062500 0.500000
vt 0.062500 1.000000
vt 0.296822 0.485388
vt 0.341844 0.471731
vt 0.383337 0.449553
vt 0.419706 0.419706
vt 0.449553 0.383337
vt 0.471731 0.341844
vt 0.485388 0.296822
vt 0.490000 0.250000
vt 0.485388 0.203178
vt 0.471731 0.158156
vt 0.449553 0.116663
vt 0.419706 0.080294
vt 0.383337 0.050447
vt 0.341844 0.028269
vt 0.296822 0.014612
vt 0.250000 0.010000
vt 0.203178 0.014612
vt 0.158156 0.028269
vt 0.116663 0.050447
vt 0.080294 0.080294
vt 0.050447 0.116663
vt 0.028269 0.158156
vt 0.014611 0.203179
vt 0.010000 0.250000
vt 0.014612 0.296822
vt 0.028269 0.341844
vt 0.050447 0.383337
vt 0.080295 0.419706
vt 0.116663 0.449553
vt 0.158156 0.471731
vt 0.203179 0.485389
vt 0.250000 0.490000
vt 0.031250 0.500000
vt 0.031250 1.000000
vt 0.000000 0.500000
vt 0.000000 1.000000
vt 0.750000 0.490000
vt 0.703179 0.485389
vt 0.658156 0.471731
vt 0.616663 0.449553
vt 0.580295 0.419706
vt 0.550447 0.383337
vt 0.528269 0.341844
vt 0.514612 0.296822
vt 0.510000 0.250000
vt 0.514611 0.203179
vt 0.528269 0.158156
vt 0.550447 0.116663
vt 0.580294 0.080294
vt 0.616663 0.050447
vt 0.658156 0.028269
vt 0.703178 0.014612
vt 0.750000 0.010000
vt 0.796822 0.014612
vt 0.841844 0.028269
vt 0.883337 0.050447
vt 0.919706 0.080294
vt 0.949553 0.116663
vt 0.971731 0.158156
vt 0.985388 0.203178
vt 0.990000 0.250000
vt 0.985388 0.296822
vt 0.971731 0.341844
vt 0.949553 0.383337
vt 0.919706 0.419706
vt 0.883337 0.449553
vt 0.841844 0.471731
vt 0.796822 0.485388
vn -0.9952 0.0000 0.0980
vn -0.9569 0.0000 0.2903
vn -0.8819 0.0000 0.4714
vn -0.7730 0.0000 0.6344
vn -0.6344 0.0000 0.7730
vn -0.4713 0.0000 0.8820
vn -0.2903 0.0000 0.9569
vn -0.0980 0.0000 0.9952
vn 0.0980 -0.0000 0.9952
vn 0.2903 -0.0000 0.9569
vn 0.4713 -0.0000 0.8820
vn 0.6344 -0.0000 0.7730
vn 0.7730 -0.0000 0.6344
vn 0.8819 -0.0000 0.4714
vn 0.9569 -0.0000 0.2903
vn 0.9952 -0.0000 0.0980
vn 0.9952 -0.0000 -0.0980
vn 0.9569 -0.0000 -0.2903
vn 0.8819 -0.0000 -0.4714
vn 0.7730 -0.0000 -0.6344
vn 0.6344 -0.0000 -0.7730
vn 0.4714 -0.0000 -0.8819
vn 0.2902 -0.0000 -0.9570
vn 0.0981 -0.0000 -0.9952
vn -0.0981 0.0000 -0.9952
vn -0.2902 0.0000 -0.9570
vn -0.4714 0.0000 -0.8819
vn -0.6344 0.0000 -0.7730
vn -0.7730 0.0000 -0.6344
vn -0.8819 0.0000 -0.4714
vn 0.0000 1.0000 -0.0000
vn -0.9569 0.0000 -0.2903
vn -0.9952 0.0000 -0.0980
vn 0.0000 -1.0000 0.0000
vn -0.4713 0.0000 0.8819
vn 0.4713 -0.0000 0.8819
usemtl None
s off
f 1/1/1 3/2/1 4/3/1 2/4/1
f 3/2/2 5/5/2 6/6/2 4/3/2
f 5/5/3 7/7/3 8/8/3 6/6/3
f 7/7/4 9/9/4 10/10/4 8/8/4
f 9/9/5 11/11/5 12/12/5 10/10/5
f 11/11/6 13/13/6 14/14/6 12/12/6
f 13/13/7 15/15/7 16/16/7 14/14/7
f 15/15/8 17/17/8 18/18/8 16/16/8
f 17/17/9 19/19/9 20/20/9 18/18/9
f 19/19/10 21/21/10 22/22/10 20/20/10
f 21/21/11 23/23/11 24/24/11 22/22/11
f 23/23/12 25/25/12 26/26/12 24/24/12
f 25/25/13 27/27/13 28/28/13 26/26/13
f 27/27/14 29/29/14 30/30/14 28/28/14
f 29/29/15 31/31/15 32/32/15 30/30/15
f 31/31/16 33/33/16 34/34/16 32/32/16
f 33/33/17 35/35/17 36/36/17 34/34/17
f 35/35/18 37/37/18 38/38/18 36/36/18
f 37/37/19 39/39/19 40/40/19 38/38/19
f 39/39/20 41/41/20 42/42/20 40/40/20
f 41/41/21 43/43/21 44/44/21 42/42/21
f 43/43/22 45/45/22 46/46/22 44/44/22
f 45/45/23 47/47/23 48/48/23 46/46/23
f 47/47/24 49/49/24 50/50/24 48/48/24
f 49/49/25 51/51/25 52/52/25 50/50/25
f 51/51/26 53/53/26 54/54/26 52/52/26
f 53/53/27 55/55/27 56/56/27 54/54/27
f 55/55/28 57/57/28 58/58/28 56/56/28
f 57/57/29 59/59/29 60/60/29 58/58/29
f 59/59/30 61/61/30 62/62/30 60/60/30
f 4/63/31 6/64/31 8/65/31 10/66/31 12/67/31 14/68/31 16/69/31 18/70/31 20/71/31 22/72/31 24/73/31 26/74/31 28/75/31 30/76/31 32/77/31 34/78/31 36/79/31 38/80/31 40/81/31 42/82/31 44/83/31 46/84/31 48/85/31 50/86/31 52/87/31 54/88/31 56/89/31 58/90/31 60/91/31 62/92/31 64/93/31 2/94/31
f 61/61/32 63/95/32 64/96/32 62/62/32
f 63/95/33 1/97/33 2/98/33 64/96/33
f 1/99/34 63/100/34 61/101/34 59/102/34 57/103/34 55/104/34 53/105/34 51/106/34 49/107/34 47/108/34 45/109/34 43/110/34 41/111/34 39/112/34 37/113/34 35/114/34 33/115/34 31/116/34 29/117/34 27/118/34 25/119/34 23/120/34 21/121/34 19/122/34 17/123/34 15/124/34 13/125/34 11/126/34 9/127/34 7/128/34 5/129/34 3/130/34
f 65/131/31 67/132/31 68/133/31 66/134/31
f 69/135/1 71/136/1 72/137/1 70/138/1
f 71/136/2 73/139/2 74/140/2 72/137/2
f 73/139/3 75/141/3 76/142/3 74/140/3
f 75/141/4 77/143/4 78/144/4 76/142/4
f 77/143/5 79/145/5 80/146/5 78/144/5
f 79/145/35 81/147/35 82/148/35 80/146/35
f 81/147/7 83/149/7 84/150/7 82/148/7
f 83/149/8 85/151/8 86/152/8 84/150/8
f 85/151/9 87/153/9 88/154/9 86/152/9
f 87/153/10 89/155/10 90/156/10 88/154/10
f 89/155/36 91/157/36 92/158/36 90/156/36
f 91/157/12 93/159/12 94/160/12 92/158/12
f 93/159/13 95/161/13 96/162/13 94/160/13
f 95/161/14 97/163/14 98/164/14 96/162/14
f 97/163/15 99/165/15 100/166/15 98/164/15
f 99/165/16 101/167/16 102/168/16 100/166/16
f 101/167/17 103/169/17 104/170/17 102/168/17
f 103/169/18 105/171/18 106/172/18 104/170/18
f 105/171/19 107/173/19 108/174/19 106/172/19
f 107/173/20 109/175/20 110/176/20 108/174/20
f 109/175/21 111/177/21 112/178/21 110/176/21
f 111/177/22 113/179/22 114/180/22 112/178/22
f 113/179/23 115/181/23 116/182/23 114/180/23
f 115/181/24 117/183/24 118/184/24 116/182/24
f 117/183/25 119/185/25 120/186/25 118/184/25
f 119/185/26 121/187/26 122/188/26 120/186/26
f 121/187/27 123/189/27 124/190/27 122/188/27
f 123/189/28 125/191/28 126/192/28 124/190/28
f 125/191/29 127/193/29 128/194/29 126/192/29
f 127/193/30 129/195/30 130/196/30 128/194/30
f 72/197/31 74/198/31 76/199/31 78/200/31 80/201/31 82/202/31 84/203/31 86/204/31 88/205/31 90/206/31 92/207/31 94/208/31 96/209/31 98/210/31 100/211/31 102/212/31 104/213/31 106/214/31 108/215/31 110/216/31 112/217/31 114/218/31 116/219/31 118/220/31 120/221/31 122/222/31 124/223/31 126/224/31 128/225/31 130/226/31 132/227/31 70/228/31
f 129/195/32 131/229/32 132/230/32 130/196/32
f 131/229/33 69/231/33 70/232/33 132/230/33
f 69/233/34 131/234/34 129/235/34 127/236/34 125/237/34 123/238/34 121/239/34 119/240/34 117/241/34 115/242/34 113/243/34 111/244/34 109/245/34 107/246/34 105/247/34 103/248/34 101/249/34 99/250/34 97/251/34 95/252/34 93/253/34 91/254/34 89/255/34 87/256/34 85/257/34 83/258/34 81/259/34 79/260/34 77/261/34 75/262/34 73/263/34 71/264/34
