# Blender v2.90.0 OBJ File: 'finish-line.blend'
# www.blender.org
mtllib dirt.mtl
o Cone.001
v 0.000000 0.000000 -3.000000
v 0.000000 4.000000 0.000001
v 0.585271 0.000000 -2.942356
v 1.148050 0.000000 -2.771638
v 1.666711 0.000000 -2.494409
v 2.121320 0.000000 -2.121320
v 2.494409 0.000000 -1.666711
v 2.771638 0.000000 -1.148050
v 2.942356 0.000000 -0.585271
v 3.000000 0.000000 0.000000
v 2.942356 -0.000000 0.585271
v 2.771639 -0.000000 1.148050
v 2.494409 -0.000000 1.666711
v 2.121320 -0.000000 2.121320
v 1.666711 -0.000000 2.494409
v 1.148050 -0.000000 2.771639
v 0.585270 -0.000000 2.942356
v -0.000001 -0.000000 3.000000
v -0.585272 -0.000000 2.942356
v -1.148052 -0.000000 2.771638
v -1.666712 -0.000000 2.494408
v -2.121322 -0.000000 2.121319
v -2.494410 -0.000000 1.666709
v -2.771640 -0.000000 1.148048
v -2.942356 -0.000000 0.585268
v -3.000000 0.000000 -0.000003
v -2.942355 0.000000 -0.585274
v -2.771637 0.000000 -1.148053
v -2.494407 0.000000 -1.666714
v -2.121318 0.000000 -2.121323
v -1.666707 0.000000 -2.494411
v -1.148046 0.000000 -2.771640
v -0.585266 0.000000 -2.942357
vt 0.250000 0.490000
vt 0.250000 0.250000
vt 0.296822 0.485388
vt 0.341844 0.471731
vt 0.383337 0.449553
vt 0.419706 0.419706
vt 0.449553 0.383337
vt 0.471731 0.341844
vt 0.485388 0.296822
vt 0.490000 0.250000
vt 0.485388 0.203178
vt 0.471731 0.158156
vt 0.449553 0.116663
vt 0.419706 0.080294
vt 0.383337 0.050447
vt 0.341844 0.028269
vt 0.296822 0.014612
vt 0.250000 0.010000
vt 0.203178 0.014612
vt 0.158156 0.028269
vt 0.116663 0.050447
vt 0.080294 0.080294
vt 0.050447 0.116663
vt 0.028269 0.158156
vt 0.014611 0.203179
vt 0.010000 0.250000
vt 0.014612 0.296822
vt 0.028269 0.341844
vt 0.050447 0.383337
vt 0.080295 0.419706
vt 0.116663 0.449553
vt 0.158156 0.471731
vt 0.750000 0.490000
vt 0.796822 0.485388
vt 0.841844 0.471731
vt 0.883337 0.449553
vt 0.919706 0.419706
vt 0.949553 0.383337
vt 0.971731 0.341844
vt 0.985388 0.296822
vt 0.990000 0.250000
vt 0.985388 0.203178
vt 0.971731 0.158156
vt 0.949553 0.116663
vt 0.919706 0.080294
vt 0.883337 0.050447
vt 0.841844 0.028269
vt 0.796822 0.014612
vt 0.750000 0.010000
vt 0.703178 0.014612
vt 0.658156 0.028269
vt 0.616663 0.050447
vt 0.580294 0.080294
vt 0.550447 0.116663
vt 0.528269 0.158156
vt 0.514611 0.203179
vt 0.510000 0.250000
vt 0.514612 0.296822
vt 0.528269 0.341844
vt 0.550447 0.383337
vt 0.580295 0.419706
vt 0.616663 0.449553
vt 0.658156 0.471731
vt 0.703179 0.485389
vt 0.203179 0.485389
vn 0.0000 -0.4263 -0.9046
vn -0.0000 1.0000 -0.0000
vn 0.1765 -0.4263 -0.8872
vn 0.3462 -0.4263 -0.8357
vn 0.5026 -0.4263 -0.7521
vn 0.6396 -0.4263 -0.6396
vn 0.7521 -0.4263 -0.5026
vn 0.8357 -0.4263 -0.3462
vn 0.8872 -0.4263 -0.1765
vn 0.9046 -0.4263 -0.0000
vn 0.8872 -0.4263 0.1765
vn 0.8357 -0.4263 0.3462
vn 0.7521 -0.4263 0.5026
vn 0.6396 -0.4263 0.6396
vn 0.5026 -0.4263 0.7521
vn 0.3462 -0.4263 0.8357
vn 0.1765 -0.4263 0.8872
vn -0.0000 -0.4263 0.9046
vn -0.1765 -0.4263 0.8872
vn -0.3462 -0.4263 0.8357
vn -0.5026 -0.4263 0.7521
vn -0.6396 -0.4263 0.6396
vn -0.7521 -0.4263 0.5026
vn -0.8357 -0.4263 0.3462
vn -0.8872 -0.4263 0.1765
vn -0.9046 -0.4263 -0.0000
vn -0.8872 -0.4263 -0.1765
vn -0.8357 -0.4263 -0.3462
vn -0.7521 -0.4263 -0.5026
vn -0.6396 -0.4263 -0.6396
vn -0.5026 -0.4263 -0.7521
vn -0.3462 -0.4263 -0.8357
vn -0.1765 -0.4263 -0.8872
usemtl Material.005
s 1
f 1/1/1 2/2/2 3/3/3
f 3/3/3 2/2/2 4/4/4
f 4/4/4 2/2/2 5/5/5
f 5/5/5 2/2/2 6/6/6
f 6/6/6 2/2/2 7/7/7
f 7/7/7 2/2/2 8/8/8
f 8/8/8 2/2/2 9/9/9
f 9/9/9 2/2/2 10/10/10
f 10/10/10 2/2/2 11/11/11
f 11/11/11 2/2/2 12/12/12
f 12/12/12 2/2/2 13/13/13
f 13/13/13 2/2/2 14/14/14
f 14/14/14 2/2/2 15/15/15
f 15/15/15 2/2/2 16/16/16
f 16/16/16 2/2/2 17/17/17
f 17/17/17 2/2/2 18/18/18
f 18/18/18 2/2/2 19/19/19
f 19/19/19 2/2/2 20/20/20
f 20/20/20 2/2/2 21/21/21
f 21/21/21 2/2/2 22/22/22
f 22/22/22 2/2/2 23/23/23
f 23/23/23 2/2/2 24/24/24
f 24/24/24 2/2/2 25/25/25
f 25/25/25 2/2/2 26/26/26
f 26/26/26 2/2/2 27/27/27
f 27/27/27 2/2/2 28/28/28
f 28/28/28 2/2/2 29/29/29
f 29/29/29 2/2/2 30/30/30
f 30/30/30 2/2/2 31/31/31
f 31/31/31 2/2/2 32/32/32
f 1/33/1 3/34/3 4/35/4 5/36/5 6/37/6 7/38/7 8/39/8 9/40/9 10/41/10 11/42/11 12/43/12 13/44/13 14/45/14 15/46/15 16/47/16 17/48/17 18/49/18 19/50/19 20/51/20 21/52/21 22/53/22 23/54/23 24/55/24 25/56/25 26/57/26 27/58/27 28/59/28 29/60/29 30/61/30 31/62/31 32/63/32 33/64/33
f 32/32/32 2/2/2 33/65/33
f 33/65/33 2/2/2 1/1/1
