# Blender v2.90.0 OBJ File: ''
# www.blender.org
mtllib tunnel.mtl
o tunnel_Road_Mesh.006
v -22.647596 -0.000014 39.994694
v -17.737047 1.326436 39.994190
v -22.647596 2.308187 39.994492
v -17.737047 2.308187 39.994190
v -17.737349 2.308213 -39.993969
v -22.644596 2.308213 -39.994190
v -17.737350 1.326463 -39.993969
v -22.644596 0.000014 -39.994240
v 22.595098 -0.000014 39.992088
v 22.595995 0.000014 -39.992443
v 22.595995 2.308213 -39.992695
v 16.325548 0.415813 -39.993065
v 17.687099 1.326463 -39.992840
v 17.688450 -0.000014 39.992409
v 14.962498 0.415786 39.992695
v 16.325548 1.326463 -39.993065
v 14.962498 1.326436 39.992695
v 17.688448 1.326436 39.992390
v -16.374897 0.415813 -39.993816
v -16.376097 0.415786 39.993893
v 17.687098 2.308213 -39.992840
v 17.688448 2.308187 39.992390
v 22.595097 2.308187 39.992088
v -16.376097 1.326436 39.993893
v -16.374897 1.326463 -39.993816
v 21.549788 8.392702 -39.991653
v 18.365461 15.989614 -39.991680
v 13.378347 22.066057 -39.991707
v 13.397179 22.091913 -26.083401
v 7.071245 26.002693 -39.991646
v -0.000145 27.375446 -39.991589
v -7.051949 25.997856 -39.991707
v -7.062964 26.032648 -25.881851
v -13.387100 22.075338 -39.991653
v -18.374977 16.002607 -39.991631
v -21.537872 8.398366 -39.991695
v -22.618711 0.359108 -39.991711
v 22.616669 0.358787 -39.991692
v -21.550133 8.392414 39.991665
v -22.618908 0.359112 39.991711
v -18.367212 15.995860 39.991676
v -13.396838 22.092190 28.322845
v -13.378347 22.066034 39.991722
v -7.070413 26.003338 39.991657
v 0.000122 27.398388 28.314716
v 0.000000 27.359985 39.991722
v 7.063313 26.032503 28.417980
v 7.051949 25.997833 39.991722
v 13.386403 22.068663 39.991680
v 18.375698 16.001860 39.991619
v 21.536682 8.399549 39.991680
v 22.611826 0.358001 39.991699
v 11.950947 20.107807 -39.991707
v 6.283050 23.638058 -39.991707
v -6.283048 23.638060 -39.991707
v -11.950950 20.107805 -39.991707
v -16.449148 14.609112 -39.991707
v -19.337097 7.680459 -39.991714
v -20.332195 0.000013 -39.991714
v 20.332195 0.000013 -39.991714
v -19.337097 7.680433 39.991714
v -20.332195 -0.000014 39.991714
v -16.449148 14.609086 39.991722
v -11.950948 20.107782 39.991726
v -6.283050 23.638035 39.991726
v -0.000002 24.854532 39.991726
v 6.283049 23.638035 39.991726
v 11.950947 20.107784 39.991726
v 16.449148 14.609110 -39.991707
v 16.449148 14.609084 39.991722
v 19.337097 7.680432 39.991714
v 20.332195 -0.000014 39.991714
v 0.000000 24.854557 -39.991707
v 19.337097 7.680460 -39.991714
v -19.337095 7.680439 33.481998
v -20.332195 -0.000010 33.481998
v 20.332195 -0.000010 33.481998
v 19.337095 7.680439 33.481998
v 16.449148 14.609087 33.482006
v 11.950948 20.107782 33.482006
v 6.283049 23.638035 33.482006
v 0.000000 24.854532 33.482006
v -6.283049 23.638035 33.482006
v -11.950948 20.107782 33.482006
v -16.449148 14.609087 33.482006
v 20.332195 0.000009 -33.012272
v -20.332195 0.000009 -33.012272
v -19.337095 7.680458 -33.012272
v -16.449148 14.609108 -33.012264
v -11.950948 20.107803 -33.012264
v -6.283049 23.638056 -33.012264
v 0.000000 24.854553 -33.012264
v 6.283049 23.638056 -33.012264
v 11.950948 20.107803 -33.012264
v 16.449148 14.609108 -33.012264
v 19.337095 7.680458 -33.012272
vt 1.000000 0.000000
vt 0.628029 1.000000
vt 0.000000 0.000000
vt 1.000000 0.000000
vt 1.000000 1.000000
vt 0.000000 1.000000
vt 0.625000 0.750000
vt 0.625000 1.000000
vt 0.594323 1.000000
vt 1.000000 0.000000
vt 0.809480 1.000000
vt 0.000000 0.000000
vt -0.000000 -0.000000
vt 0.000000 1.000000
vt 0.000000 1.000000
vt 1.000000 1.000000
vt 0.000000 1.000000
vt 0.000000 1.000000
vt 0.000000 1.000000
vt 0.012101 0.998008
vt 1.000000 1.000000
vt 0.594323 0.500000
vt 0.594323 0.250000
vt 0.594323 0.250000
vt 1.000000 1.000000
vt 0.000000 1.000000
vt 0.000000 0.000000
vt 0.000000 0.000000
vt 1.000000 0.000000
vt 1.000000 1.000000
vt 1.000000 1.000000
vt 0.000000 1.000000
vt 1.000000 1.000000
vt 0.000000 0.000000
vt 1.000000 0.000000
vt 0.875000 0.000000
vt 0.875000 0.250000
vt 0.625000 0.000000
vt 0.375000 0.000000
vt 0.375000 0.250000
vt 0.125000 0.000000
vt 1.000000 0.000000
vt 0.375000 1.000000
vt 0.375000 0.750000
vt 0.000000 1.000000
vt 0.000000 0.000000
vt 1.000000 0.000000
vt 1.000000 1.000000
vt 1.000000 1.000000
vt 0.000000 0.000000
vt 1.000000 0.000000
vt 1.000000 1.000000
vt 1.000000 0.000000
vt 0.000000 1.000000
vt 1.000000 1.000000
vt 0.000000 1.000000
vt 1.000000 0.000000
vt 1.000000 1.000000
vt 0.000000 1.000000
vt 1.000000 0.000000
vt 1.000000 1.000000
vt 0.000000 1.000000
vt 1.000000 0.000000
vt 0.000000 1.000000
vt 1.000000 0.000000
vt 1.000000 1.000000
vt 1.000000 1.000000
vt 0.000000 1.000000
vt 0.000000 0.000000
vt 0.000000 1.000000
vt 1.000000 1.000000
vt 1.000000 1.000000
vt 1.000000 0.000000
vt 1.000000 1.000000
vt -0.000000 1.000000
vt 1.000000 0.000006
vt 0.000000 1.000000
vt 0.000000 0.000000
vt 0.000000 0.000000
vt 1.000000 0.000006
vt 0.000000 1.000000
vt 1.000000 0.999994
vt 0.000000 1.000000
vt 0.000000 0.000000
vt 1.000000 0.999991
vt 0.000000 1.000000
vt 0.000000 0.000000
vt 1.000000 0.971979
vt 0.000000 1.000000
vt 0.000000 0.000000
vt 1.000000 0.997532
vt 0.000000 1.000000
vt 0.000000 0.000000
vt 0.000000 0.000000
vt 1.000000 1.001216
vt 0.000000 1.000000
vt 1.000000 1.003690
vt 0.000000 1.000000
vt 0.000000 0.000000
vt 1.000000 -0.288506
vt 0.000000 1.000000
vt 0.000000 0.000000
vt 0.000000 0.000000
vt 1.000000 0.000936
vt 0.000000 1.000000
vt 0.000000 0.000000
vt 1.000000 0.004566
vt 0.000000 1.000000
vt 1.000000 -0.002457
vt 0.000000 1.000000
vt 0.000000 0.000000
vt 1.000000 0.000000
vt 1.000000 1.000000
vt 0.000000 0.000000
vt 1.000000 0.000000
vt 1.000000 1.000000
vt 0.000000 0.000000
vt 1.000000 0.000000
vt 1.000000 1.000000
vt 0.000000 0.000000
vt 1.000000 0.000000
vt 0.500000 1.000000
vt 0.000000 0.000000
vt 0.500000 0.000000
vt 1.000000 1.000000
vt 0.000000 1.000000
vt 1.000000 0.000000
vt 0.000000 1.000000
vt 0.000000 0.000000
vt 1.000000 0.000000
vt 0.000000 1.000000
vt 0.000000 0.000000
vt 0.500000 1.000000
vt 1.000000 1.000000
vt 0.000000 1.000000
vt 0.000000 0.000000
vt 1.000000 0.000000
vt 1.000000 0.000000
vt 1.000000 1.000000
vt 1.000000 0.000000
vt 1.000000 1.000000
vt 1.000000 0.000000
vt 1.000000 1.000000
vt 0.000000 1.000000
vt 0.000000 0.000000
vt 1.000000 0.000000
vt 1.000000 1.000000
vt 1.000000 0.000000
vt 1.000000 1.000000
vt 0.000000 0.997532
vt 1.000000 0.000000
vt 1.000000 0.000000
vt 0.000000 0.996383
vt 1.000000 0.000000
vt 1.000000 1.000000
vt 0.000000 1.003690
vt 0.000000 1.000000
vt 0.000000 0.000000
vt 1.000000 0.000000
vt 1.000000 1.000000
vt 1.000000 0.000000
vt 1.000000 1.000000
vt 0.000000 0.500000
vt 1.000000 0.000000
vt 1.000000 1.000000
vt 0.000000 0.000936
vt 1.000000 1.000000
vt 0.000000 0.004566
vt 0.000000 1.000000
vt 0.000000 0.000000
vt 1.000000 0.000000
vt 1.000000 1.000000
vt 1.000000 1.000000
vt 0.000000 -0.002457
vt 0.000000 -0.002154
vt 1.000000 0.000000
vt 1.000000 1.000000
vt 1.000000 0.000000
vt 1.000000 1.000000
vt 0.000000 1.000000
vt 1.000000 1.000000
vt 0.000000 1.000000
vt 0.500000 0.000000
vt 0.000000 1.000000
vt 0.000000 0.000000
vt 0.500000 1.000000
vt 1.000000 1.000000
vt 1.000000 1.000000
vt 0.000000 1.000000
vt 0.000000 0.000000
vt 1.000000 0.000000
vt 0.500000 0.000000
vt 1.000000 1.000000
vt 0.000000 0.000000
vt 1.000000 0.000000
vt 0.500000 1.000000
vt 0.000000 1.000000
vt 0.000000 1.000000
vt 0.000000 0.000000
vt 1.000000 0.000000
vt 0.000000 1.000000
vt 1.000000 1.000000
vt 0.000000 1.000000
vt 1.000000 0.000000
vt 1.000000 1.000000
vt 0.000000 1.000000
vt 1.000000 0.000000
vt 1.000000 1.000000
vt 0.000000 1.000000
vt 1.000000 0.000000
vt 1.000000 1.000000
vt 0.000000 1.000000
vt 1.000000 0.000000
vt 1.000000 1.000000
vt 1.000000 1.000000
vt 0.000000 1.000000
vt 1.000000 0.000000
vt 1.000000 1.000000
vt 0.000000 1.000000
vt 1.000000 0.000000
vt 1.000000 1.000000
vt 0.000000 1.000000
vt 1.000000 0.000000
vt 1.000000 1.000000
vt 0.000000 1.000000
vt 1.000000 0.000000
vt 1.000000 1.000000
vt 0.000000 1.000000
vt 1.000000 0.000000
vt 0.000000 1.000000
vt 1.000000 0.000000
vt 1.000000 1.000000
vt 0.000000 1.000000
vt 0.000000 0.000000
vt 0.000000 0.000000
vt 0.000000 0.000000
vt 0.000000 0.000000
vt 0.000000 0.000000
vt 0.000000 0.000000
vt 0.000000 0.000000
vt 0.000000 0.000000
vt 0.000000 0.000000
vt 1.000000 1.000000
vt 0.000000 0.000000
vt 0.000000 0.000000
vt 0.000000 0.000000
vt 0.000000 0.000000
vt 0.000000 0.000000
vt 0.000000 0.000000
vt 0.000000 0.000000
vt 0.000000 0.000000
vt 0.000000 0.000000
vt 0.000000 0.000000
vt 0.000000 0.000000
vt 0.000000 0.000000
vt 0.000000 0.000000
vt 0.000000 0.000000
vt 0.000000 0.000000
vt 0.000000 0.000000
vt 0.000000 0.000000
vt 0.000000 0.000000
vt 0.000000 0.000000
vt 0.000000 0.000000
vt 0.000000 0.000000
vt 0.000000 0.000000
vt 0.000000 0.000000
vn 0.0001 0.0000 -1.0000
vn 0.5774 -0.5774 -0.5773
vn 0.0001 -0.0001 -1.0000
vn 0.5774 0.5773 -0.5774
vn 0.5774 -0.5774 0.5773
vn 0.0000 -0.8944 0.4472
vn 0.0001 -0.0002 -1.0000
vn 0.0000 -0.0000 -1.0000
vn 0.3016 0.3015 -0.9045
vn -0.5773 -0.5773 0.5774
vn 0.0001 0.0003 1.0000
vn 0.0001 -0.0001 1.0000
vn -0.5773 0.5774 0.5773
vn -0.7071 0.7071 -0.0000
vn -0.7071 -0.7071 -0.0000
vn 0.7071 0.7071 0.0000
vn 0.0106 0.9999 0.0000
vn 1.0000 -0.0000 -0.0000
vn 0.0001 0.7071 -0.7071
vn 0.0000 1.0000 0.0000
vn 0.0001 0.0000 1.0000
vn 0.7072 0.7071 -0.0000
vn -1.0000 -0.0000 0.0000
vn -0.9999 0.0000 -0.0170
vn 0.0002 0.0000 -1.0000
vn 0.0002 0.0000 1.0000
vn 0.2717 0.6919 -0.6689
vn 0.6596 0.7517 -0.0005
vn 0.4880 0.5555 -0.6732
vn -0.2711 0.6913 -0.6697
vn -0.4879 0.5565 -0.6725
vn -0.3647 0.9311 -0.0005
vn -0.6317 0.3798 0.6758
vn -0.4874 0.5558 0.6735
vn -0.6595 0.7517 0.0002
vn -0.2715 0.6920 0.6689
vn 0.0005 0.7440 0.6681
vn -0.0010 1.0000 0.0012
vn -0.7111 0.1911 0.6766
vn -0.6316 0.3799 -0.6758
vn 0.3660 0.9306 0.0012
vn 0.4880 0.5568 0.6722
vn 0.6321 0.3793 0.6757
vn 0.7103 0.1915 0.6773
vn 0.7109 0.1921 -0.6766
vn -0.6539 -0.4876 -0.5786
vn -0.7091 0.1893 -0.6792
vn -0.0001 0.7452 -0.6669
vn 0.6315 0.3794 -0.6762
vn -0.5756 -0.3453 0.7412
vn -0.4398 -0.5004 0.7458
vn -0.5757 -0.3453 -0.7412
vn -0.0000 -0.6586 0.7525
vn 0.2416 -0.6152 0.7504
vn 0.0000 -0.6586 -0.7525
vn 0.4398 -0.5004 0.7458
vn 0.2416 -0.6152 -0.7504
vn -0.2416 -0.6152 0.7504
vn -0.2416 -0.6152 -0.7504
vn -0.4902 -0.6542 0.5760
vn -0.6516 -0.1746 -0.7382
vn -0.4902 -0.6542 -0.5760
vn 0.5757 -0.3453 0.7412
vn 0.6516 -0.1746 -0.7382
vn 0.5757 -0.3453 -0.7412
vn 0.6536 -0.4879 -0.5787
vn 0.2705 0.6916 0.6697
vn 0.6536 -0.4880 0.5785
vn -0.6535 -0.4880 0.5786
vn 0.4902 -0.6542 -0.5759
vn 0.6516 -0.1746 0.7382
vn 0.4902 -0.6542 0.5760
vn -0.6516 -0.1746 0.7382
vn 0.4398 -0.5004 -0.7458
vn -0.4398 -0.5004 -0.7458
vn 0.0000 -0.0000 1.0000
usemtl Concrete.001
s 1
f 13/1/1 10/2/2 12/3/3
f 11/4/4 10/5/2 13/6/1
f 10/7/2 9/8/5 14/9/6
f 19/10/7 8/11/8 7/12/9
f 1/13/10 20/14/11 2/15/12
f 3/16/13 6/17/14 8/18/15
f 11/19/4 23/20/16 9/21/5
f 13/22/17 18/23/16 14/24/18
f 7/25/9 25/26/19 19/27/7
f 6/17/14 3/28/13 4/29/20 5/30/20
f 1/13/10 2/31/12 3/32/13
f 18/33/16 13/6/17 16/34/20 17/35/20
f 10/36/2 11/37/4 9/38/5
f 1/39/10 3/40/13 8/41/15
f 8/18/8 19/27/7 12/42/3 10/5/2
f 14/9/6 1/43/10 8/44/15 10/7/2
f 15/45/11 20/46/11 1/47/10 14/48/21
f 23/49/16 11/19/4 21/50/20 22/51/20
f 24/52/20 25/26/19 7/12/9 2/53/22
f 4/54/18 2/15/22 7/25/9 5/30/18
f 2/53/12 4/55/21 3/32/13
f 5/56/8 7/12/9 8/57/8 6/58/8
f 21/59/23 13/6/23 14/60/23 22/61/23
f 22/62/21 14/60/6 9/63/5 23/49/21
f 16/64/24 12/3/24 15/65/24 17/66/24
f 13/1/1 21/67/8 11/19/4
f 17/68/21 15/69/11 14/60/21 18/33/21
f 24/70/18 20/46/18 19/10/18 25/71/18
f 12/42/3 16/72/25 13/6/1
f 20/73/11 24/52/26 2/15/12
usemtl Road
f 15/65/20 12/74/20 19/75/20 20/46/20
usemtl Concrete_Wall
f 30/76/27 29/77/28 28/78/29
f 32/79/30 34/80/31 33/81/32
f 41/82/33 43/83/34 42/84/35
f 44/85/36 46/86/37 45/87/38
f 39/88/39 41/89/33 35/90/40
f 42/91/35 44/92/36 33/93/32
f 29/94/28 47/95/41 49/96/42
f 50/97/43 51/98/44 26/99/45
f 37/100/46 39/101/39 36/102/47
f 34/103/31 35/104/40 42/105/35
f 31/106/48 33/107/32 45/108/38
f 29/109/28 50/110/43 27/111/49
f 70/112/50 68/113/51 69/114/52
f 66/115/53 65/116/54 73/117/55
f 65/118/54 64/119/56 55/120/57
f 67/121/58 73/122/55 54/123/59
f 68/124/51 67/125/58 54/126/59
f 72/127/60 74/128/61 60/129/62
f 63/130/63 58/131/64 57/132/65
f 60/129/62 38/133/66 72/127/60
f 46/134/37 48/135/67 47/136/41 45/137/38
f 28/138/29 29/139/28 27/111/49
f 31/106/48 32/140/30 33/141/32
f 42/142/35 43/143/34 44/92/36
f 52/144/68 38/145/66 26/146/45 51/147/44
f 49/96/42 47/148/41 48/149/67
f 42/150/35 35/151/40 41/82/33
f 33/152/32 44/85/36 45/153/38
f 29/154/28 49/155/42 50/156/43
f 47/157/41 30/158/27 31/159/48 45/160/38
f 37/161/46 40/162/69 39/163/39
f 36/164/47 39/165/39 35/166/40
f 34/80/31 42/167/35 33/168/32
f 59/169/70 58/170/64 61/171/71 62/172/72
f 30/76/27 47/173/41 29/174/28
f 26/175/45 27/176/49 50/177/43
f 71/178/73 70/179/50 69/180/52
f 67/121/58 66/181/53 73/182/55
f 73/183/55 65/116/54 55/184/57
f 74/185/61 71/178/73 69/186/52
f 72/127/60 71/187/73 74/128/61
f 63/188/63 57/189/65 56/190/74 64/191/56
f 63/192/63 61/193/71 58/131/64
f 53/194/75 68/195/51 54/196/59
f 69/114/52 68/113/51 53/197/75
f 37/198/46 59/199/70 62/200/72 40/162/69
f 55/120/57 64/119/56 56/201/74
f 72/127/60 38/202/66 52/144/68
usemtl Concrete
f 26/203/45 74/185/61 69/204/52 27/205/49
f 27/206/49 69/114/52 53/207/75 28/208/29
f 28/209/29 53/194/75 54/210/59 30/211/27
f 30/212/27 54/123/59 73/213/55 31/214/48
f 32/215/30 31/216/48 73/117/55 55/217/57
f 34/218/31 32/219/30 55/120/57 56/220/74
f 35/221/40 34/222/31 56/190/74 57/223/65
f 36/224/47 35/225/40 57/132/65 58/226/64
f 37/227/46 36/228/47 58/170/64 59/229/70
f 38/230/66 60/129/62 74/231/61 26/232/45
f 40/233/69 62/234/72 61/171/71 39/165/39
f 39/101/39 61/235/71 63/130/63 41/82/33
f 41/89/33 63/236/63 64/191/56 43/143/34
f 43/83/34 64/237/56 65/118/54 44/85/36
f 44/92/36 65/238/54 66/115/53 46/134/37
f 48/149/67 46/86/37 66/239/53 67/121/58
f 49/155/42 48/135/67 67/240/58 68/195/51
f 50/177/43 49/96/42 68/241/51 70/112/50
f 51/147/44 50/110/43 70/242/50 71/178/73
f 52/243/68 51/98/44 71/244/73 72/127/60
usemtl hole
s off
f 78/245/76 79/246/76 80/247/76 81/248/76 82/249/76 83/250/76 84/251/76 85/252/76 75/253/76 76/254/76 77/255/76
f 87/256/8 88/257/8 89/258/8 90/259/8 91/260/8 92/261/8 93/262/8 94/263/8 95/264/8 96/265/8 86/266/8
